<svg width="120" height="120" viewBox="0 0 120 120" fill="none" xmlns="http://www.w3.org/2000/svg">
<path d="M0 100V20C0 8.95431 8.95431 0 20 0H100C111.046 0 120 8.95431 120 20V100C120 111.046 111.046 120 100 120H20C8.95431 120 0 111.046 0 100Z" fill="#D9D9D9"/>
<path d="M20 30C20 24.4772 24.4772 20 30 20H50C55.5228 20 60 24.4772 60 30V50C60 55.5228 64.4772 60 70 60H90C95.5229 60 100 64.4772 100 70V90C100 95.5229 95.5229 100 90 100H60H30C24.4772 100 20 95.5229 20 90V60V30Z" fill="black"/>
<rect x="65" y="20" width="35" height="35" rx="10" fill="#D41010"/>
</svg>
